<svg xmlns:xlink="http://www.w3.org/1999/xlink" xmlns="http://www.w3.org/2000/svg" version="1.1" viewBox="0 0 120 120" height="120px" width="120px">
    <title>审核中</title>
    <defs>
        <rect height="120" width="120" y="0" x="0" id="path-1"></rect>
        <linearGradient id="linearGradient-3" y2="3.44169138e-13%" x2="50%" y1="100%" x1="49.9999926%">
            <stop offset="0%" stop-opacity="0" stop-color="#FFFFFF"></stop>
            <stop offset="41%" stop-opacity="0.14" stop-color="#FBFBFC"></stop>
            <stop offset="66%" stop-opacity="0.48" stop-color="#F0F1F3"></stop>
            <stop offset="100%" stop-color="#DFE1E6"></stop>
        </linearGradient>
        <linearGradient id="linearGradient-4" y2="98.5743381%" x2="49.9943509%" y1="12.8309572%" x1="49.9943509%">
            <stop offset="27%" stop-color="#DFE1E6"></stop>
            <stop offset="89%" stop-color="#D1D3D8"></stop>
            <stop offset="100%" stop-color="#C4C6CC"></stop>
        </linearGradient>
        <linearGradient id="linearGradient-5" y2="-2.34215886%" x2="49.9943509%" y1="87.1690428%" x1="49.9943509%">
            <stop offset="27%" stop-color="#DFE1E6"></stop>
            <stop offset="89%" stop-color="#D1D3D8"></stop>
            <stop offset="100%" stop-color="#C4C6CC"></stop>
        </linearGradient>
        <linearGradient id="linearGradient-6" y2="49.964065%" x2="100.000654%" y1="49.964065%" x1="-0.0327087464%">
            <stop offset="50%" stop-opacity="0" stop-color="#DFE1E6"></stop>
            <stop offset="58%" stop-opacity="0.14" stop-color="#DDDFE4"></stop>
            <stop offset="77%" stop-opacity="0.51" stop-color="#D8DADF"></stop>
            <stop offset="100%" stop-color="#D1D3D8"></stop>
        </linearGradient>
        <linearGradient id="linearGradient-7" y2="49.9573177%" x2="91.0875%" y1="49.9573177%" x1="0.6375%">
            <stop offset="0%" stop-color="#E9EBF0"></stop>
            <stop offset="85%" stop-color="#CACCD2"></stop>
            <stop offset="100%" stop-color="#C4C6CC"></stop>
        </linearGradient>
        <linearGradient id="linearGradient-8" y2="49.9796665%" x2="100%" y1="49.9796665%" x1="2.63774565e-13%">
            <stop offset="0%" stop-color="#FDB65B"></stop>
            <stop offset="100%" stop-color="#FD9357"></stop>
        </linearGradient>
    </defs>
    <g fill-rule="evenodd" fill="none" stroke-width="1" stroke="none" id="审核中...">
        <g id="分组-2-copy-2">
            <mask fill="white" id="mask-2">
                <use xlink:href="#path-1"></use>
            </mask>
            <g fill-rule="nonzero" id="Mask"></g>
            <g mask="url(#mask-2)" id="分组-16-copy">
                <g transform="translate(0.000000, 10.000000)">
                    <ellipse ry="21" rx="60" cy="107" cx="60" fill-rule="nonzero" fill="url(#linearGradient-3)" id="椭圆形"></ellipse>
                    <g transform="translate(18.000000, 0.000000)" fill-rule="evenodd" fill="none" stroke-width="1" id="分组-39">
                        <rect rx="2.17656728" height="5.79049601" width="52.492635" y="0.165105793" x="12.5315713" fill-rule="nonzero" fill="url(#linearGradient-4)" id="矩形"></rect>
                        <rect rx="2.17656728" height="5.79049601" width="52.492635" y="88.0308706" x="12.5315713" fill-rule="nonzero" fill="url(#linearGradient-5)" id="矩形"></rect>
                        <path fill-rule="nonzero" fill="url(#linearGradient-6)" id="路径" d="M44.9191297,51.0235865 L44.9191297,51.0235865 C44.8717269,51.0264195 44.8241957,51.0264195 44.7767929,51.0235865 C44.5277035,50.9646202 44.278614,50.9056538 44.0295246,50.8584807 C42.3666312,50.3042017 41.2503147,48.7501744 41.2624565,47.0064374 C41.2745983,45.2627004 42.4124483,43.7241892 44.0829009,43.1928547 L44.5039807,43.0985085 C44.6403868,43.0985085 44.7767929,43.0336455 44.9191297,43.0218522 L44.8835455,43.0218522 C52.2941604,41.2735659 58.5935048,36.4467003 62.1817424,29.767128 C65.76998,23.0875558 66.3018787,15.1979331 63.6423529,8.10197711 L63.6423529,8.10197711 L63.6423529,8.10197711 C63.1965711,6.85078334 62.0119846,6.00984677 60.6770024,5.99687825 L16.9084287,5.99687825 C15.5895687,5.99811315 14.4089928,6.81037909 13.9430782,8.03711412 L13.9430782,8.03711412 C11.2606379,15.1344047 11.7782953,23.0359858 15.3640723,29.7273298 C18.9498493,36.4186737 25.2572412,41.253175 32.6781628,42.9982657 L32.6485093,42.9982657 C32.8221616,43.0225839 32.994394,43.0560452 33.1644803,43.0985085 L33.4432232,43.1633715 C35.1356404,43.6822639 36.2949393,45.2314537 36.3084998,46.9922869 C36.3220604,48.75312 35.1867572,50.3197787 33.5025302,50.8643774 C33.2771636,50.9056538 33.0636583,50.9587236 32.8442224,51.0117933 L32.6485093,51.0471731 L32.6485093,51.0471731 C25.2345037,52.7994634 18.9358182,57.6358873 15.3563693,64.3248831 C11.7769204,71.0138788 11.2621272,78.909954 13.9430782,86.002428 L13.9430782,86.002428 C14.4089928,87.229163 15.5895687,88.041429 16.9084287,88.0426639 L60.6236261,88.0426639 C61.9580435,88.0279736 63.1417402,87.1876687 63.5889766,85.937565 L63.5889766,85.937565 L63.5889766,85.937565 C66.2471312,78.8480261 65.7187905,70.9653639 62.1379807,64.2892056 C58.5571709,57.6130474 52.2679584,52.7848795 44.8657534,51.0294832 L44.9191297,51.0235865 Z"></path>
                        <path fill-rule="nonzero" fill="#C4C6CC" id="形状" d="M60.6236261,88.1782946 L16.9084287,88.1782946 C15.5426953,88.1812921 14.3153841,87.3498279 13.8185334,86.0849809 L13.7829492,86.0319112 C11.0953131,78.9187007 11.6037417,71.0011985 15.1794067,64.2855836 C18.7550716,57.5699687 25.0548425,52.7006897 32.4824496,50.9115505 L32.4824496,50.9115505 L32.6129251,50.9115505 C32.6442485,50.9177463 32.6764928,50.9177463 32.7078163,50.9115505 L32.8027075,50.9115505 L32.9924899,50.870274 L33.4550846,50.7641346 C35.0772155,50.2389005 36.169284,48.7282598 36.1529985,47.0321536 C36.136713,45.3360475 35.0158368,43.8464114 33.3839162,43.3520638 L33.2356487,43.3225806 L33.0458662,43.2754076 C32.9033245,43.2393881 32.758756,43.2118219 32.6129251,43.1928547 L32.4824496,43.1928547 L32.4824496,43.1574749 C25.0304007,41.3750355 18.7088334,36.4930819 15.1280597,29.7552089 C11.5472861,23.0173359 11.052991,15.0740122 13.7710878,7.94866459 L13.806672,7.88969823 C14.3067913,6.62825341 15.532824,5.79999505 16.8965673,5.80228453 L60.6236261,5.80228453 C61.9387428,5.80872256 63.1275673,6.58209885 63.660145,7.77766216 L63.660145,7.77766216 L63.760967,8.00763094 C66.4320469,15.1168568 65.9137122,23.022976 62.3370005,29.7272812 C58.7602889,36.4315863 52.4675444,41.2923764 45.0496052,43.0808186 L45.0496052,43.0808186 L44.913199,43.0808186 L44.6403868,43.1279917 L44.3497824,43.1928547 L44.0947623,43.251821 C42.4683455,43.7535414 41.3569415,45.2458914 41.3488003,46.9389916 C41.340659,48.6320919 42.4376606,50.1349393 44.0591781,50.6520985 L44.6522482,50.7818245 L44.8064464,50.8172043 L44.8716841,50.8172043 L44.9250604,50.8172043 L45.0614666,50.8172043 L45.0614666,50.8172043 C52.4794058,52.6056465 58.7721503,57.4664366 62.3488619,64.1707417 C65.9255736,70.8750469 66.4439083,78.7811661 63.7728284,85.890392 L63.6838678,86.132154 L63.6838678,86.132154 C63.1682268,87.3621966 61.9638887,88.1674387 60.6236261,88.1782946 Z M14.0379694,85.8844953 L14.0735536,85.937565 C14.516238,87.1091975 15.6436902,87.8847156 16.902498,87.8834563 L60.6236261,87.8834563 C61.9019249,87.8761403 63.0392934,87.0751317 63.4703626,85.8785987 L63.4703626,85.8314256 L63.5059468,85.8314256 C66.1243435,78.7868834 65.5828,70.9646673 62.0182905,64.3432735 C58.4537811,57.7218796 52.2076766,52.9354349 44.8598227,51.194589 L44.7471394,51.194589 L44.7471394,51.194589 L44.5751491,51.1533125 L43.982079,51.0235865 C42.2906802,50.4872193 41.1213427,48.9511734 41.0614439,47.1870299 C41.0015452,45.4228864 42.064031,43.8119304 43.7151974,43.1633715 L43.6262369,43.1633715 L43.8931185,43.0985085 L44.0235939,43.0513354 L44.2845447,42.9923691 L44.5751491,42.9334027 L44.6285254,42.9334027 L44.8301692,42.880333 C52.1860193,41.1480375 58.4422941,36.3640764 62.0143528,29.7401706 C65.5864114,23.1162648 66.1316178,15.2877875 63.5118775,8.23759972 L63.5118775,8.23759972 L63.482224,8.18453 C63.0511548,6.98799696 61.9137863,6.18698843 60.6354875,6.17967242 L16.9084287,6.17967242 C15.6496209,6.17841313 14.5221687,6.95393121 14.0794843,8.12556365 L14.0439001,8.17863337 C11.3950242,15.2338174 11.9218332,23.080388 15.4903569,29.7229252 C19.0588807,36.3654623 25.3252709,41.1639183 32.6959549,42.8980229 L32.8975987,42.945196 L33.1111039,42.9923691 L33.3068171,43.0395421 L33.4550846,43.074922 L33.5143916,43.074922 L33.9354714,43.1751648 L33.7931346,43.1751648 C35.444301,43.8237236 36.5067868,45.4346796 36.4468881,47.1988232 C36.3869893,48.9629667 35.2176518,50.4990126 33.526253,51.0353798 L33.0577276,51.1415193 L32.8620145,51.1886923 L32.773054,51.1886923 L32.7078163,51.1886923 L32.6603707,51.1886923 C25.2987557,52.9330819 19.0438509,57.7342897 15.483183,64.3737448 C11.9225151,71.0131999 11.3984143,78.8525707 14.0439001,85.9021852 L14.0379694,85.8844953 Z"></path>
                        <path fill-rule="nonzero" fill="url(#linearGradient-7)" id="路径" d="M43.2703948,82.8831079 C39.3857857,82.4998266 39.2968251,79.1151578 39.2968251,79.1151578 L39.2968251,47.0138744 C39.2910188,44.4029059 41.0029378,42.0951552 43.5135536,41.3295179 L43.703336,41.2823448 L43.8990492,41.2410683 L44.0888316,41.1938952 L44.1303465,41.1938952 L44.2133763,41.1938952 L44.3319903,41.1938952 L44.4446737,41.1938952 C53.2056464,39.1682014 60.14261,32.5269514 62.509589,23.8990635 L15.0639807,23.8990635 C17.4546754,32.4890222 24.3750213,39.0936704 33.1051732,41.117239 L33.2059952,41.117239 L33.5203223,41.1879986 L33.5796293,41.1879986 L33.7219662,41.2233784 L33.8168574,41.2233784 L33.9947784,41.2705515 C36.5133767,42.0309061 38.2321509,44.3437953 38.2233683,46.9608047 L38.2233683,79.079778 C38.2233683,79.079778 38.1344077,82.4644468 34.2557293,82.8477281 L34.320967,82.8477281 C28.7749629,83.2143374 23.3004736,84.2966033 18.0352619,86.067291 L59.5086543,86.067291 C54.2364522,84.2912945 48.7536792,83.2069853 43.1992264,82.8418314 L43.2703948,82.8831079 Z"></path>
                        <ellipse ry="15.2428026" rx="15.3308622" cy="83.6260839" cx="75.7172603" fill-rule="nonzero" fill="#D1D3D8" id="椭圆形"></ellipse>
                        <path fill-rule="nonzero" fill="#FFFFFF" id="路径" d="M74.5785657,84.4162331 C74.9946853,84.9744806 75.7373678,85.18308 76.3857623,84.9238256 C77.0341567,84.6645711 77.4248052,84.00282 77.3363417,83.3135623 L83.9312812,78.3957683 L83.0060919,77.1692681 L76.4111523,82.0870621 C76.1639737,81.984419 75.8940949,81.9478287 75.6282998,81.9809227 L71.6487994,76.6739507 L70.4152135,77.5938259 L74.3947139,82.8713146 C74.1691435,83.3812521 74.2395302,83.9727164 74.5785657,84.4162331 Z"></path>
                        <path fill-rule="nonzero" fill="#FFFFFF" id="路径" d="M75.7172603,95.8262227 C75.2914536,95.8262227 74.9462691,96.1694245 74.9462691,96.5927853 C74.9462691,97.0161461 75.2914536,97.3593479 75.7172603,97.3593479 C76.1430669,97.3593479 76.4882514,97.0161461 76.4882514,96.5927853 C76.4882514,96.1694245 76.1430669,95.8262227 75.7172603,95.8262227 Z"></path>
                        <path fill-rule="nonzero" fill="#FFFFFF" id="路径" d="M75.7172603,71.5084981 C76.1430669,71.5084981 76.4882514,71.1652963 76.4882514,70.7419355 C76.4882514,70.3185746 76.1430669,69.9753729 75.7172603,69.9753729 C75.2914536,69.9753729 74.9462691,70.3185746 74.9462691,70.7419355 C74.9462691,70.9452405 75.0274983,71.1402187 75.1720872,71.2839771 C75.3166761,71.4277355 75.5127807,71.5084981 75.7172603,71.5084981 Z"></path>
                        <path fill-rule="nonzero" fill="#FFFFFF" id="路径" d="M62.7171636,82.9007978 C62.2913569,82.9007978 61.9461724,83.2439996 61.9461724,83.6673604 C61.9461724,84.0907212 62.2913569,84.433923 62.7171636,84.433923 C63.1429702,84.433923 63.4881547,84.0907212 63.4881547,83.6673604 C63.4881547,83.2439996 63.1429702,82.9007978 62.7171636,82.9007978 Z"></path>
                        <path fill-rule="nonzero" fill="#FFFFFF" id="路径" d="M88.717357,82.9007978 C88.2915503,82.9007978 87.9463658,83.2439996 87.9463658,83.6673604 C87.9463658,84.0907212 88.2915503,84.433923 88.717357,84.433923 C89.1431636,84.433923 89.4883481,84.0907212 89.4883481,83.6673604 C89.4883481,83.2439996 89.1431636,82.9007978 88.717357,82.9007978 Z"></path>
                        <path fill-rule="nonzero" fill="#333333" id="路径" d="M14.838614,95.7377732 C16.2629567,96.3509114 17.4929285,97.3373896 18.3970346,98.5917447 C18.3970346,98.5917447 18.4978566,99.8300382 15.6214666,99.0575789 C14.5694192,98.6786154 13.5723414,98.1631131 12.656116,97.5244537 L12.656116,95.7554631 L14.838614,95.7377732 Z"></path>
                        <path fill-rule="nonzero" fill="#333333" id="路径" d="M17.5785979,93.9510926 C19.0038768,94.5626899 20.234229,95.5494732 21.1370185,96.8050642 C21.1370185,96.8050642 21.2378405,98.0433576 18.3673811,97.2708984 C17.3153338,96.8919348 16.318256,96.3764325 15.4020306,95.7377732 L15.4020306,93.9687825 L17.5785979,93.9510926 Z"></path>
                        <path fill-rule="nonzero" fill="#FCD9CB" id="路径" d="M10.8057373,70.1640652 C10.8057373,70.1640652 12.1579371,71.089837 11.9918775,73.4131113 C11.9658558,73.9519151 11.7244347,74.4580597 11.321278,74.8190381 C10.9181213,75.1800164 10.3866366,75.365916 9.84496374,75.3354145 L9.84496374,76.8685397 L7.36,76.5737079 L7.36,74.3388831 L5.77057212,72.2396809 L8.05389202,69.0790843 L10.8057373,70.1640652 Z"></path>
                        <path fill-rule="nonzero" fill="#666666" id="路径" d="M10.1296374,69.1439473 C10.1296374,69.1439473 6.90926672,67.8584807 5.76464142,70.0284426 C5.76464142,70.0284426 4.37685737,73.1890392 7.10497985,74.4273326 C7.10497985,74.4273326 8.04796132,74.6219216 7.20580177,73.8789455 C6.83997466,73.5798001 6.63411293,73.1290702 6.64831587,72.658342 C6.64831587,72.658342 6.73727639,72.0332986 7.64467365,72.1807145 C7.64467365,72.1807145 7.45489122,69.633368 9.89834005,70.0048561 C9.89834005,70.0048561 11.2386785,70.5945196 11.9978082,69.9340964 C11.9978082,69.9340964 12.3951652,69.5154353 12.080838,69.2795699 C12.080838,69.2795699 11.8376793,69.1557405 11.7961644,69.4859521 C11.7961644,69.4859521 11.7190653,69.7866805 10.1296374,69.1439473 Z"></path>
                        <path fill-rule="nonzero" fill="url(#linearGradient-8)" id="路径" d="M6.98043513,75.5064169 C7.36638272,76.0591001 7.97135893,76.4215933 8.64314809,76.5026911 C9.31493725,76.5837889 9.98958317,76.3757705 10.4973409,75.9309747 C11.8029004,76.2845393 12.9076434,77.1509109 13.5575826,78.3309053 L13.3500081,81.0315643 L4.19300564,90.0062435 L0.776921837,89.658342 C0.776921837,89.658342 1.17427881,82.670829 2.8408058,79.079778 C2.8408058,79.079778 4.43023368,76.054804 6.98043513,75.5064169 Z"></path>
                        <path fill-rule="nonzero" fill="#666666" id="路径" d="M11.724996,82.7887617 C11.724996,82.7887617 13.8185334,78.142213 16.3805963,82.2403746 C16.3805963,82.2403746 18.6342627,85.7193895 17.6260435,94.3638571 C16.9542918,94.7566165 16.1212279,94.7566165 15.4494762,94.3638571 L11.724996,82.7887617 Z"></path>
                        <path fill-rule="nonzero" fill="#666666" id="路径" d="M3.84902498,89.8116545 C3.84902498,89.8116545 5.31390814,81.2438432 10.0525383,81.4797086 C10.0525383,81.4797086 16.1848832,81.8629899 15.3901692,95.5195976 C14.6391932,96.3202456 13.4591588,96.5572671 12.4544722,96.1092612 C12.4544722,96.1092612 12.1757293,88.8799861 9.40609186,90.7197364 C8.56519338,91.6081174 7.64184033,92.415606 6.64831587,93.1314603 C4.48954069,94.5289629 1.44709106,94.6822754 1.34626914,89.6288588 L3.84902498,89.8116545 Z"></path>
                        <path fill-rule="nonzero" fill="#FCD9CB" id="路径" d="M6.06117647,82.3936871 L9.32306205,86.7984738 C9.32306205,86.7984738 10.5566479,86.7984738 13.7414343,84.3572667 C13.7414343,84.3572667 15.8171797,83.1012834 12.9111362,81.1436004 L13.5397905,78.3603885 C15.0209372,79.3405412 16.1864163,80.7245314 16.8965673,82.346514 C17.4478267,83.5031968 17.1733083,84.8822699 16.2204674,85.7429761 C14.4610327,87.5173593 12.2713912,88.8110067 9.86275584,89.4991328 C8.96864042,89.9894402 7.8443708,89.6805367 7.33034649,88.8033299 C7.33034649,88.8033299 5.20715552,86.0260146 4.04473811,84.4869927 L6.06117647,82.3936871 Z"></path>
                    </g>
                </g>
            </g>
        </g>
    </g>
</svg>