<svg xmlns:xlink="http://www.w3.org/1999/xlink" xmlns="http://www.w3.org/2000/svg" version="1.1" viewBox="0 0 120 120" height="120px" width="120px">
    <title>任务</title>
    <defs>
        <linearGradient id="linearGradient-1" y2="3.44169138e-13%" x2="50%" y1="100%" x1="49.9999926%">
            <stop offset="0%" stop-opacity="0" stop-color="#FFFFFF"></stop>
            <stop offset="41%" stop-opacity="0.14" stop-color="#FBFBFC"></stop>
            <stop offset="66%" stop-opacity="0.48" stop-color="#F0F1F3"></stop>
            <stop offset="100%" stop-color="#DFE1E6"></stop>
        </linearGradient>
        <linearGradient id="linearGradient-2" y2="95.5174825%" x2="87.1165918%" y1="6.58741259%" x1="14.5886727%">
            <stop offset="27%" stop-color="#DFE1E6"></stop>
            <stop offset="89%" stop-color="#D1D3D8"></stop>
            <stop offset="100%" stop-color="#C4C6CC"></stop>
        </linearGradient>
        <linearGradient id="linearGradient-3" y2="100%" x2="50%" y1="0%" x1="50%">
            <stop offset="27%" stop-color="#DFE1E6"></stop>
            <stop offset="89%" stop-color="#C4C6CC"></stop>
            <stop offset="100%" stop-color="#B5B7BA"></stop>
        </linearGradient>
        <linearGradient id="linearGradient-4" y2="50%" x2="100%" y1="50%" x1="0%">
            <stop offset="0%" stop-color="#FFFFFF"></stop>
            <stop offset="100%" stop-color="#E9EBF0"></stop>
        </linearGradient>
        <linearGradient id="linearGradient-5" y2="-3005.13219%" x2="1023.14238%" y1="-3086.93624%" x1="1037.71152%">
            <stop offset="0%" stop-color="#DFE1E6"></stop>
            <stop offset="52%" stop-color="#D1D3D8"></stop>
            <stop offset="100%" stop-color="#C4C6CC"></stop>
        </linearGradient>
        <linearGradient id="linearGradient-6" y2="99.9251002%" x2="50.0138857%" y1="-0.118958453%" x1="50.0138857%">
            <stop offset="0%" stop-color="#FDB65B"></stop>
            <stop offset="100%" stop-color="#FD9357"></stop>
        </linearGradient>
    </defs>
    <g fill-rule="evenodd" fill="none" stroke-width="1" stroke="none" id="任务">
        <g fill-rule="nonzero" id="分组-2-copy-2">
            <g id="分组-4">
                <ellipse ry="21" rx="60" cy="117" cx="60" fill="url(#linearGradient-1)" id="椭圆形"></ellipse>
                <rect rx="3.95604396" height="94" width="80" y="13" x="21" fill="url(#linearGradient-2)" id="矩形"></rect>
                <rect height="78" width="66" y="20" x="28" fill="#E9EBF0" id="矩形"></rect>
                <path fill="url(#linearGradient-3)" id="形状" d="M78.6940581,10.5494505 L66.6301775,10.5494505 L66.6301775,5.27472527 C66.6301775,2.36157495 64.2776855,0 61.3757396,0 C58.4737937,0 56.1213018,2.36157495 56.1213018,5.27472527 L56.1213018,10.5494505 L43.3136095,10.5494505 C42.588123,10.5494505 42,11.1398443 42,11.8681319 L42,19.7802198 C42,20.5085074 42.588123,21.0989011 43.3136095,21.0989011 L78.6940581,21.0989011 C79.4195445,21.0989011 80.0076675,20.5085074 80.0076675,19.7802198 L80.0076675,11.8681319 C80.0076675,11.1398443 79.4195445,10.5494505 78.6940581,10.5494505 Z M61.4611243,8.40659341 C59.7380939,8.40659341 58.3413018,7.00440828 58.3413018,5.27472527 C58.3413018,3.54504227 59.7380939,2.14285714 61.4611243,2.14285714 C63.1841546,2.14285714 64.5809467,3.54504227 64.5809467,5.27472527 C64.5809467,7.00440828 63.1841546,8.40659341 61.4611243,8.40659341 Z"></path>
                <rect rx="2.5" height="5" width="32" y="34" x="35" fill="#FFFFFF" id="矩形"></rect>
                <path fill="#FFFFFF" id="路径" d="M86.7459172,32.3340659 L86.7459172,32.3340659 C85.9766214,31.5627603 84.7303609,31.5627603 83.9610651,32.3340659 L79.4553846,36.8571429 C78.6860888,37.6284485 77.4398283,37.6284485 76.6705325,36.8571429 L75.1795858,35.3604396 C74.41029,34.5891339 73.1640295,34.5891339 72.3947337,35.3604396 L72.3947337,35.3604396 C71.6263947,36.1327056 71.6263947,37.3837779 72.3947337,38.156044 L75.6065089,41.3802198 L75.6065089,41.3802198 L77.7279882,43.5032967 C77.8164952,43.5928797 77.9372768,43.6428054 78.0629586,43.6417744 C78.188356,43.6413528 78.308605,43.5916473 78.397929,43.5032967 L80.5456805,41.3604396 L80.5456805,41.3604396 L86.7721893,35.1098901 C87.5202615,34.3327653 87.5085634,33.0967817 86.7459172,32.3340659 L86.7459172,32.3340659 Z"></path>
                <rect rx="2.5" height="5" width="32" y="56" x="35" fill="#FFFFFF" id="矩形"></rect>
                <path fill="#FFFFFF" id="路径" d="M86.7459172,53.7626374 L86.7459172,53.7626374 C85.9766214,52.9913318 84.7303609,52.9913318 83.9610651,53.7626374 L79.1204142,58.6153846 C78.5359309,59.200524 77.5899862,59.200524 77.005503,58.6153846 L75.1795858,56.789011 C74.41029,56.0177054 73.1640295,56.0177054 72.3947337,56.789011 L72.3947337,56.789011 C71.6263947,57.561277 71.6263947,58.8123493 72.3947337,59.5846154 L75.6065089,62.8087912 L75.6065089,62.8087912 L77.7279882,64.9318681 C77.8164952,65.0214512 77.9372768,65.0713768 78.0629586,65.0703458 C78.188356,65.0699242 78.308605,65.0202187 78.397929,64.9318681 L80.5128402,62.8087912 L80.5128402,62.8087912 L86.7393491,56.5582418 C87.5095056,55.7877961 87.5124449,54.5367213 86.7459172,53.7626374 Z"></path>
                <rect rx="2.5" height="5" width="25" y="78" x="35" fill="#FFFFFF" id="矩形"></rect>
                <path fill="#FFFFFF" id="路径" d="M86.7459172,75.1912088 L86.7459172,75.1912088 C85.9766214,74.4199032 84.7303609,74.4199032 83.9610651,75.1912088 L79.1204142,80.043956 C78.5359309,80.6290955 77.5899862,80.6290955 77.005503,80.043956 L75.1795858,78.2175824 C74.41029,77.4462768 73.1640295,77.4462768 72.3947337,78.2175824 L72.3947337,78.2175824 C71.6263947,78.9898485 71.6263947,80.2409208 72.3947337,81.0131868 L75.6065089,84.2373626 L75.6065089,84.2373626 L77.7279882,86.3604396 C77.8164952,86.4500226 77.9372768,86.4999482 78.0629586,86.4989172 C78.188356,86.4984956 78.308605,86.4487902 78.397929,86.3604396 L80.5456805,84.2175824 L80.5456805,84.2175824 L86.7721893,77.967033 C87.5202615,77.1899081 87.5085634,75.9539246 86.7459172,75.1912088 Z"></path>
                <polygon points="100.473136 87.5406593 92.5849112 95.3538462 92.4601183 84.2307692 97.7539645 78.9494505 100.420592 80.0571429" fill="url(#linearGradient-4)" id="路径"></polygon>
                <polygon points="113.379349 48.4681319 115.546805 50.789011 100.473136 87.5406593 98.3056805 85.2197802" fill="#C4C6CC" id="路径"></polygon>
                <polygon points="110.706154 47.3604396 107.533787 47.4791209 92.4601183 84.2307692 95.6324852 84.1120879" fill="#E9EBF0" id="路径"></polygon>
                <polygon points="84.661107 64.879981 124.384001 64.8261617 124.380073 67.7177201 84.6571786 67.7715394" transform="translate(104.520590, 66.298851) rotate(-67.620000) translate(-104.520590, -66.298851)" fill="#D1D3D8" id="矩形"></polygon>
                <path fill="url(#linearGradient-5)" id="路径" d="M95.5142604,92.4461538 C94.7243314,91.644638 93.661159,91.1734339 92.5389349,91.1274725 L92.5849112,95.367033 L95.5142604,92.4461538 Z"></path>
                <path fill="#FCD9CB" id="路径" d="M19.1081657,64.7142857 C19.1081657,64.7142857 20.3232544,69.3296703 17.6106509,69.7516484 L17.6106509,71.2021978 L15.1739053,71.2021978 L15.4826036,68.4725275 L16.3167456,63.8571429 L19.1081657,64.7142857 Z"></path>
                <path fill="#666666" id="路径" d="M15.817574,62.3472527 C15.817574,62.3472527 18.2543195,61.9912088 19.1015976,63.7846154 C19.1015976,63.7846154 19.7584024,64.8857143 20.1787574,64.4043956 C20.1787574,64.4043956 20.8355621,65.6505495 18.8651479,65.7956044 C18.4781302,65.830349 18.0925836,65.7147104 17.7879882,65.4725275 C17.7879882,65.4725275 16.927574,64.8989011 16.927574,66.1318681 C16.927574,66.1318681 16.8224852,67.1010989 17.5384024,67.4505495 C17.5384024,67.4505495 18.0047337,68.3868132 15.962071,69.210989 C15.962071,69.210989 13.2494675,69.3230769 12.9933136,65.2549451 C13.0261538,65.2549451 12.9604734,62.8153846 15.817574,62.3472527 Z"></path>
                <path fill="#333333" id="路径" d="M22.6549112,110.393407 C22.6549112,110.393407 25.4791716,110.248352 23.2591716,111.613187 C23.2591716,111.613187 19.9751479,113.696703 18.6615385,112.404396 C18.3805359,111.87465 18.4371887,111.228382 18.8060355,110.756044 C20.0758734,110.521769 21.3638254,110.40042 22.6549112,110.393407 L22.6549112,110.393407 Z"></path>
                <path fill="#333333" id="路径" d="M16.106568,109.978022 C16.106568,109.978022 18.8979882,109.556044 16.8290533,111.131868 C16.8290533,111.131868 13.7617751,113.531868 12.349645,112.378022 C12.0222097,111.872945 12.0222097,111.22156 12.349645,110.716484 C13.5779249,110.360074 14.8350908,110.112965 16.106568,109.978022 L16.106568,109.978022 Z"></path>
                <path fill="#666666" id="路径" d="M19.3840237,85.6615385 C19.3840237,85.6615385 21.2559172,86.7296703 20.9669231,89.9802198 L20.9669231,110.756044 L18.8060355,110.756044 C18.8060355,110.756044 18.4776331,99.7120879 16.6385799,92.6637363 C16.6385799,92.6637363 15.0819527,98.6901099 15.1542012,110.756044 C14.2676723,111.162027 13.2493099,111.162027 12.3627811,110.756044 C12.3627811,110.756044 11.5811834,93.9494505 12.5072781,86.9802198 L19.3840237,85.6615385 Z"></path>
                <polygon points="26.9766864 70.8593407 23.4036686 77.578022 19.0359172 74.6307692 22.3659172 68.4923077" fill="#FEFEFD" id="路径"></polygon>
                <path fill="#FCD9CB" id="路径" d="M21.9718343,75.3230769 L22.3659172,75.5604396 L22.9373373,78.3296703 C22.9373373,78.3296703 23.725503,79.7538462 24.3297633,75.3230769 C24.3297633,75.3230769 24.007929,73.0813187 24.6515976,73.0483516 C24.6515976,73.0483516 25.117929,73.0483516 24.973432,74.4131868 L25.9783432,72.5076923 C25.9783432,72.5076923 26.8387574,73.0813187 25.4791716,77.1230769 C25.4791716,77.1230769 24.5136686,81.9692308 22.5104142,82.0417582 C20.5071598,82.1142857 20.5071598,75.9032967 20.5071598,75.9032967 L21.9718343,75.3230769 Z"></path>
                <path fill="#FCD9CB" id="路径" d="M21.2559172,70.9186813 C21.6433261,70.9207375 21.9756729,71.1964647 22.0506509,71.578022 C22.1216873,71.8265578 21.9900017,72.088072 21.7485207,72.178022 L21.2559172,70.9186813 Z"></path>
                <path fill="#858386" id="路径" d="M20.3626627,69.6197802 C20.54,69.5472527 20.6319527,69.5076923 20.7567456,69.6857143 L22.070355,72.5142857 L22.1360355,73.0021978 L21.7485207,72.7252747 L20.2050296,69.9956044 C20.17492,69.9249132 20.1746999,69.8449777 20.2044197,69.7741205 C20.2341396,69.7032633 20.2912509,69.6475605 20.3626627,69.6197802 Z"></path>
                <path fill="#FCD9CB" id="路径" d="M20.7042012,70.8989011 C20.8843315,71.2639127 21.2043077,71.5399168 21.5908876,71.6637363 C21.5908876,71.6637363 22.0046746,72.178022 21.0654438,72.1054945 L19.850355,72.2505495 C19.850355,72.2505495 19.3708876,71.189011 20.7042012,70.8989011 Z"></path>
                <path fill="url(#linearGradient-6)" id="路径" d="M18.464497,70.978022 C18.464497,70.978022 21.7485207,70.621978 22.6549112,75.7846154 L20.5597041,76.4967033 C20.5847373,79.0688138 20.793259,81.6358212 21.1836686,84.178022 C21.1836686,84.178022 21.9389941,86.5516484 20.5597041,86.9802198 C20.5597041,86.9802198 15.6073964,88.2989011 12.5269822,86.9802198 C12.5269822,86.9802198 11.5286391,86.5516484 11.8110651,84.3428571 C12.0741735,81.5019319 12.056573,78.6418409 11.7585207,75.8043956 C11.7585207,75.8043956 10.7404734,71.7494505 14.1755621,70.9384615 C15.5869518,71.2505504 17.047633,71.2640235 18.464497,70.978022 Z"></path>
            </g>
        </g>
    </g>
</svg>