<svg xmlns:xlink="http://www.w3.org/1999/xlink" xmlns="http://www.w3.org/2000/svg" version="1.1" viewBox="0 0 120 120" height="120px" width="120px">
    <title>审核完成</title>
    <defs>
        <linearGradient id="linearGradient-1" y2="3.44169138e-13%" x2="50%" y1="100%" x1="49.9999926%">
            <stop offset="0%" stop-opacity="0" stop-color="#FFFFFF"></stop>
            <stop offset="41%" stop-opacity="0.14" stop-color="#FBFBFC"></stop>
            <stop offset="66%" stop-opacity="0.48" stop-color="#F0F1F3"></stop>
            <stop offset="100%" stop-color="#DFE1E6"></stop>
        </linearGradient>
        <linearGradient id="linearGradient-2" y2="94.6778523%" x2="87.9663724%" y1="7.37583893%" x1="13.7845179%">
            <stop offset="27%" stop-color="#DFE1E6"></stop>
            <stop offset="89%" stop-color="#D1D3D8"></stop>
            <stop offset="100%" stop-color="#C4C6CC"></stop>
        </linearGradient>
        <linearGradient id="linearGradient-3" y2="100%" x2="49.9957831%" y1="0%" x1="49.9957831%">
            <stop offset="0%" stop-color="#FFFFFF"></stop>
            <stop offset="100%" stop-color="#E9EBF0"></stop>
        </linearGradient>
        <linearGradient id="linearGradient-4" y2="100%" x2="50%" y1="0%" x1="50%">
            <stop offset="27%" stop-color="#DFE1E6"></stop>
            <stop offset="89%" stop-color="#D1D3D8"></stop>
            <stop offset="100%" stop-color="#C4C6CC"></stop>
        </linearGradient>
        <linearGradient id="linearGradient-5" y2="57.3345822%" x2="82.1985409%" y1="48.2937232%" x1="14.6101429%">
            <stop offset="0%" stop-color="#FDB65B"></stop>
            <stop offset="100%" stop-color="#FD9357"></stop>
        </linearGradient>
        <linearGradient id="linearGradient-6" y2="762.195694%" x2="117.497733%" y1="762.195694%" x1="20.1269266%">
            <stop offset="0%" stop-color="#686868"></stop>
            <stop offset="100%" stop-color="#3D3D3D"></stop>
        </linearGradient>
    </defs>
    <g fill-rule="evenodd" fill="none" stroke-width="1" stroke="none" id="审核完成">
        <g fill-rule="nonzero" id="分组-copy">
            <g transform="translate(0.000000, 7.000000)" id="分组-17-copy">
                <ellipse ry="21" rx="60" cy="109.887451" cx="60" fill="url(#linearGradient-1)" id="椭圆形"></ellipse>
                <g transform="translate(9.000000, 0.000000)" id="分组-29">
                    <rect rx="6" height="94" width="80" y="4" x="9" fill="url(#linearGradient-2)" id="矩形"></rect>
                    <rect height="77.2039307" width="65.4425574" y="9.21384615" x="16.4855944" fill="#DFE1E6" id="矩形"></rect>
                    <circle r="16" cy="89" cx="89" fill="#E9EBF0" id="椭圆形"></circle>
                    <path fill="#B5B7BA" id="路径" d="M97.7149727,82.6786721 L97.7149727,82.6786721 C96.7985748,81.773776 95.3211209,81.773776 94.404723,82.6786721 L88.6864413,88.3740441 C88.3509685,88.7125987 87.8932946,88.9031732 87.415712,88.9031732 C86.9381294,88.9031732 86.4804555,88.7125987 86.1449827,88.3740441 L83.984743,86.2161309 C83.0705173,85.3119721 81.5950725,85.3119721 80.6808469,86.2161309 L80.6808469,86.2161309 C79.773051,87.1266938 79.773051,88.5962274 80.6808469,89.5067903 L84.4930347,93.3037049 L84.4930347,93.3037049 L87.0344932,95.8349813 C87.1390081,95.9384691 87.2810629,95.9955198 87.4284193,95.993272 C87.5777022,95.995797 87.7218326,95.9388316 87.828699,95.8349813 L90.3701576,93.3037049 L90.3701576,93.3037049 L97.7594483,85.9440187 C98.6383022,85.0244993 98.6185472,83.5741082 97.7149727,82.6786721 Z"></path>
                    <path fill="url(#linearGradient-3)" id="路径" d="M16.8486126,10 C16.8486126,10 17.4811504,62.6505495 7,81.9325475 L72.1513874,81.9325475 C72.1513874,81.9325475 82,65.352687 82,10 L16.8486126,10 Z"></path>
                    <rect rx="2" height="4" width="52" y="23" x="23" fill="#DFE1E6" id="矩形"></rect>
                    <rect rx="2" height="4" width="52" y="36" x="22" fill="#DFE1E6" id="矩形"></rect>
                    <rect rx="2" height="4" width="52" y="49" x="20" fill="#DFE1E6" id="矩形"></rect>
                    <rect rx="2" height="4" width="33" y="62" x="18" fill="#DFE1E6" id="矩形"></rect>
                    <rect height="14" width="30" y="0" x="34" fill="url(#linearGradient-4)" id="矩形"></rect>
                    <path fill="#FCD9CB" id="路径" d="M3.63216783,67.6293776 C3.58343612,70.0538815 3.15468976,72.4559175 2.36143856,74.7485926 L9.17254745,74.1790554 C9.42453748,71.2789956 9.88530297,68.4007034 10.5512887,65.5663874 L3.63216783,67.6293776 Z"></path>
                    <path fill="#FCD9CB" id="路径" d="M20.2405994,50.6192001 C19.6876024,50.3174405 18.9941471,50.5012497 18.6648951,51.0368607 C18.3302565,51.3980929 18.2183969,51.9115547 18.3726274,52.3784372 L13.4803197,56.5993407 L14.2491109,58.7445974 L19.3701499,52.7771133 L19.3701499,52.7771133 C19.6770858,52.6762405 19.9483847,52.4895086 20.1516484,52.239217 C20.6099107,51.8090588 20.6490319,51.0965658 20.2405994,50.6192001 Z"></path>
                    <path fill="#FCD9CB" id="路径" d="M1.97386613,47.0184594 C2.49486513,46.9425211 2.9968032,47.467761 3.09846154,48.1891748 C3.19516759,48.674223 3.02001712,49.1733403 2.640999,49.4927821 L4.59792208,55.6311274 L2.81254745,57.0612986 L1.58629371,49.3092646 L1.58629371,49.3092646 C1.3739266,49.0672348 1.2389692,48.7675516 1.19872128,48.4486306 C1.10341658,47.7272168 1.44651349,47.0880695 1.97386613,47.0184594 Z"></path>
                    <path fill="#333333" id="路径" d="M12.1905295,84.1332999 L15.2085115,85.5697992 C15.2085115,85.5697992 17.0065934,86.3291822 15.7485714,83.8105621 C15.7485714,83.8105621 14.4778422,82.1525761 13.0991009,81.9121048 C13.0991009,81.9121048 11.9872128,82.0070277 11.6314086,82.7031287 L12.1905295,84.1332999 Z"></path>
                    <path fill="#333333" id="路径" d="M8.70873127,84.3611148 L11.7267133,85.7976141 C11.7267133,85.7976141 13.5247952,86.5633252 12.2604196,84.038377 C12.2604196,84.038377 10.9896903,82.3867191 9.61094905,82.1399197 C9.61094905,82.1399197 8.50541459,82.2348426 8.14961039,82.9309436 L8.70873127,84.3611148 Z"></path>
                    <path transform="translate(8.623873, 54.482408) rotate(-74.845932) translate(-8.623873, -54.482408)" fill="#FCD9CB" id="椭圆形" d="M8.79888819,57.0200409 C10.4574148,57.0217221 11.5335441,55.7868949 11.5321589,54.4156918 C11.530771,53.0444888 10.1843003,51.9464593 8.52577377,51.9447751 C6.8672472,51.9430934 5.71420126,53.6004105 5.71558656,54.9716135 C5.71697436,56.3428166 7.14036162,57.0183563 8.79888819,57.0200409 Z"></path>
                    <polygon points="7.35677096 56.16659 9.32585817 56.1645922 9.32174661 60.2030959 7.3526594 60.2050937" transform="translate(8.339259, 58.184843) rotate(15.210000) translate(-8.339259, -58.184843)" fill="#FCD9CB" id="矩形"></polygon>
                    <path fill="#666666" id="路径" d="M5.49378621,51.0305325 C5.49378621,51.0305325 6.19268731,51.8658538 7.65402597,51.245691 C8.77270267,50.7424716 10.079271,50.8984367 11.0468731,51.6506953 C11.8028791,52.6317964 12.039285,53.9150466 11.6822378,55.0995594 C11.3736292,56.095765 10.4833441,56.8016228 9.4394006,56.8777811 C10.0119123,56.4459875 10.3742874,55.7931072 10.4369231,55.0805748 C10.3076615,54.8622758 10.0376282,54.7708323 9.80155844,54.8654163 C9.80155844,54.8654163 10.868971,53.1757893 8.53082917,52.7201596 C8.49906094,52.7201596 5.28411588,52.8150824 5.49378621,51.0305325 Z"></path>
                    <path fill="#666666" id="路径" d="M2.10729271,74.1474144 C2.10729271,74.1474144 0.557002997,80.4756055 1.10977023,86.4177768 C1.10977023,86.4177768 0.919160839,88.8098331 3.99432567,87.3100518 C5.69651983,86.4996995 7.32308976,85.5403738 8.85486513,84.4433812 L8.2195005,82.8866462 C8.2195005,82.8866462 4.75676324,83.6713419 3.83548452,84.9053392 C3.83548452,84.9053392 5.74157842,78.5771481 6.65014985,74.0967889 L2.10729271,74.1474144 Z"></path>
                    <path fill="#666666" id="路径" d="M4.94737263,74.1474144 C4.94737263,74.1474144 3.93078921,80.5958411 4.98549451,86.4367614 C4.98549451,86.4367614 4.98549451,88.8288176 7.93994006,87.0252832 C9.57111043,86.0438978 11.1125075,84.9215978 12.5463337,83.6713419 L11.8093107,82.1905452 C11.8093107,82.1905452 8.42281718,83.3296196 7.60955045,84.6522115 C7.60955045,84.6522115 8.98829171,78.1784721 9.51564436,73.6221746 L4.94737263,74.1474144 Z"></path>
                    <path fill="url(#linearGradient-5)" id="路径" d="M6.66285714,59.0546788 C6.66285714,59.0546788 9.11536464,59.6874979 10.0239361,58.8395203 C10.0239361,58.8395203 12.0825175,57.4979438 14.3062937,55.8589423 L15.9709491,57.0676268 C15.9709491,57.0676268 12.0825175,60.2317223 10.8562637,66.9902303 C10.8562637,66.9902303 10.4369231,70.6162838 9.58553447,70.654253 C9.58553447,70.654253 4.82665335,72.4198183 1.81502498,71.4073077 C1.81502498,71.4073077 0.950929071,71.2554311 2.10093906,68.9456414 C2.10093906,68.9456414 4.19128871,64.3197337 2.46945055,55.7766758 L4.31836164,54.7198679 C4.31836164,54.7198679 5.4366034,58.1307629 6.66285714,59.0546788 Z"></path>
                    <path fill="#666666" id="路径" d="M2.66005994,72.1856752 C4.97743088,72.4432922 7.32232055,72.2890209 9.58553447,71.7300454 L9.50929071,72.3628645 C9.50929071,72.3628645 10.4051548,73.6601437 8.95016983,77.279869 L1.66889111,76.450876 C1.80633652,75.2376475 2.11210828,74.0492764 2.57746254,72.9197454 L2.66005994,72.1856752 Z"></path>
                    <path fill="url(#linearGradient-6)" id="路径" d="M2.5584016,72.9007608 C4.88132758,73.2466519 7.25299588,73.0561197 9.49022977,72.34388 L9.56647353,71.7110609 C7.29421821,72.2096185 4.95935369,72.3632302 2.640999,72.1666906 L2.5584016,72.9007608 Z"></path>
                </g>
            </g>
        </g>
    </g>
</svg>